<svg xmlns="http://www.w3.org/2000/svg" xmlns:xlink="http://www.w3.org/1999/xlink"
    style="display: none;">
    <symbol id="Equis" viewBox="0 0 320.591 320.591">
        <path
            d="M30.391 318.583a30.37 30.37 0 0 1-21.56-7.288c-11.774-11.844-11.774-30.973 0-42.817L266.643 10.665c12.246-11.459 31.462-10.822 42.921 1.424 10.362 11.074 10.966 28.095 1.414 39.875L51.647 311.295a30.366 30.366 0 0 1-21.256 7.288z"
            data-original="#000000"
        ></path>
        <path
            d="M287.9 318.583a30.37 30.37 0 0 1-21.257-8.806L8.83 51.963C-2.078 39.225-.595 20.055 12.143 9.146c11.369-9.736 28.136-9.736 39.504 0l259.331 257.813c12.243 11.462 12.876 30.679 1.414 42.922-.456.487-.927.958-1.414 1.414a30.368 30.368 0 0 1-23.078 7.288z"
            data-original="#000000"
        ></path>
    </symbol>
    <symbol id="BurguerMenu" viewBox="0 0 20 20">
        <path
            fill-rule="evenodd"
            clip-rule="evenodd"
            d="M3 5a1 1 0 011-1h12a1 1 0 110 2H4a1 1 0 01-1-1zM3 10a1 1 0 011-1h12a1 1 0 110 2H4a1 1 0 01-1-1zM3 15a1 1 0 011-1h12a1 1 0 110 2H4a1 1 0 01-1-1z"
        ></path>
    </symbol>
    <symbol id="EmailAddress" viewBox="0 0 122.88 78.607">
        <path
            fill="currentColor"
            d="M61.058,65.992l24.224-24.221l36.837,36.836H73.673h-25.23H0l36.836-36.836 L61.058,65.992L61.058,65.992z M1.401,0l59.656,59.654L120.714,0H1.401L1.401,0z M0,69.673l31.625-31.628L0,6.42V69.673L0,69.673z M122.88,72.698L88.227,38.045L122.88,3.393V72.698L122.88,72.698z"
        ></path>
    </symbol>

    <symbol id="Phone" viewBox="0 0 118.875 122.877">
        <path
            fill="currentColor"
            d="M1.432,20.714c9.427,6.476,18.779,12.989,26.673,21.375 C23.58,62.076,41.64,78.045,58.111,87.453c6.448,3.683,9.298,6.265,16.476,5.024l28.268,27.696 C49.657,138.039-10.045,63.084,1.432,20.714L1.432,20.714z M81.874,85.356l6.201-6.298c1.788-1.819,4.74-1.842,6.559-0.053 l22.862,22.509c1.818,1.789,1.841,4.741,0.053,6.559l-6.203,6.299c-1.789,1.818-4.741,1.841-6.56,0.052L81.924,91.915 C80.105,90.127,80.083,87.175,81.874,85.356L81.874,85.356z M7.004,7.467l4.5-5.464c1.929-2.342,5.425-2.68,7.767-0.751 l23.405,19.281c2.342,1.931,2.677,5.425,0.75,7.77l-4.502,5.461c-1.93,2.345-5.425,2.68-7.768,0.751L7.755,15.234 C5.413,13.305,5.073,9.809,7.004,7.467L7.004,7.467z"
        ></path>
    </symbol>

    <symbol id="MapPin" viewBox="0 0 107.86 122.88">
        <path
            fill="currentColor"
            d="M86.07,81.78c13.22,4.16,21.79,10.81,21.79,18.31,0,12.59-24.14,22.79-53.93,22.79S0,112.68,0,100.09c0-7.68,9-14.47,22.73-18.6.5.76,1,1.52,1.51,2.26q1.61,2.34,3.33,4.6c-9.62,2.58-15.79,6.56-15.79,11,0,7.78,18.67,14.09,41.71,14.09s41.7-6.31,41.7-14.09c0-4.16-5.34-7.9-13.84-10.48,1.67-2.29,3.24-4.67,4.72-7.12ZM71.65,84.49A70.47,70.47,0,0,1,56.22,97.26a2.17,2.17,0,0,1-2.48.08A87,87,0,0,1,32.27,78.19C24.45,68.38,19.53,57.5,17.84,47,16.13,36.4,17.73,26.18,23,17.87A35.87,35.87,0,0,1,31,9C38.47,3.08,47-.06,55.47,0A34.42,34.42,0,0,1,78.68,9.48,34.33,34.33,0,0,1,84.88,17c5.68,9.37,6.91,21.31,4.41,33.41a73.54,73.54,0,0,1-17.64,34v0Zm-17.8-65.6A18.25,18.25,0,1,1,35.6,37.14,18.24,18.24,0,0,1,53.85,18.89Z"
        ></path>
    </symbol>

    <symbol id="LinkedIn" viewBox="0 0 512 512">
        <path
            fill="currentColor"
            d="M474.919 0H38.592C17.72 0 0 16.504 0 36.841V475.14C0 495.496 11.629 512 32.492 512h436.327C489.718 512 512 495.496 512 475.14V36.841C512 16.504 495.809 0 474.919 0zM195.043 195.043h68.928v35.136h.755c10.505-18.945 41.541-38.177 79.921-38.177 73.655 0 94.214 39.108 94.214 111.538v135.321h-73.148V316.883c0-32.427-12.947-60.883-43.227-60.883-36.768 0-54.295 24.889-54.295 65.758v117.103h-73.148V195.043zM73.139 438.861h73.148V195.043H73.139v243.818zm82.289-329.148c0 25.258-20.457 45.715-45.715 45.715-25.258 0-45.715-20.457-45.715-45.715 0-25.258 20.457-45.715 45.715-45.715 25.258 0 45.715 20.457 45.715 45.715z"
        ></path>
    </symbol>

    <symbol id="Github" viewBox="0 0 640 640">
        <path
            fill="currentColor"
            d="M319.988 7.973C143.293 7.973 0 151.242 0 327.96c0 141.392 91.678 261.298 218.826 303.63 16.004 2.964 21.886-6.957 21.886-15.414 0-7.63-.319-32.835-.449-59.552-89.032 19.359-107.8-37.772-107.8-37.772-14.552-36.993-35.529-46.831-35.529-46.831-29.032-19.879 2.209-19.442 2.209-19.442 32.126 2.245 49.04 32.954 49.04 32.954 28.56 48.922 74.883 34.76 93.131 26.598 2.882-20.681 11.15-34.807 20.315-42.803-71.08-8.067-145.797-35.516-145.797-158.14 0-34.926 12.52-63.485 32.965-85.88-3.33-8.078-14.291-40.606 3.083-84.674 0 0 26.87-8.61 88.029 32.8 25.512-7.075 52.878-10.642 80.056-10.76 27.2.118 54.614 3.673 80.162 10.76 61.076-41.386 87.922-32.8 87.922-32.8 17.398 44.08 6.485 76.631 3.154 84.675 20.516 22.394 32.93 50.953 32.93 85.879 0 122.907-74.883 149.93-146.117 157.856 11.481 9.921 21.733 29.398 21.733 59.233 0 42.792-.366 77.28-.366 87.804 0 8.516 5.764 18.473 21.992 15.354 127.076-42.354 218.637-162.274 218.637-303.582 0-176.695-143.269-319.988-320-319.988l-.023.107z"
        ></path>
    </symbol>

</svg>