<svg xmlns="http://www.w3.org/2000/svg" xmlns:xlink="http://www.w3.org/1999/xlink"
    style="display: none;">
    <symbol id="Equis" viewBox="0 0 320.591 320.591">
        <path
            data-original="#000000"
            d="M30.391 318.583a30.37 30.37 0 0 1-21.56-7.288c-11.774-11.844-11.774-30.973 0-42.817L266.643 10.665c12.246-11.459 31.462-10.822 42.921 1.424 10.362 11.074 10.966 28.095 1.414 39.875L51.647 311.295a30.366 30.366 0 0 1-21.256 7.288z"
        />
        <path
            data-original="#000000"
            d="M287.9 318.583a30.37 30.37 0 0 1-21.257-8.806L8.83 51.963C-2.078 39.225-.595 20.055 12.143 9.146c11.369-9.736 28.136-9.736 39.504 0l259.331 257.813c12.243 11.462 12.876 30.679 1.414 42.922-.456.487-.927.958-1.414 1.414a30.368 30.368 0 0 1-23.078 7.288z"
        />
    </symbol>
    <symbol id="BurguerMenu" viewBox="0 0 20 20">
        <path
            fill-rule="evenodd"
            clip-rule="evenodd"
            d="M3 5a1 1 0 011-1h12a1 1 0 110 2H4a1 1 0 01-1-1zM3 10a1 1 0 011-1h12a1 1 0 110 2H4a1 1 0 01-1-1zM3 15a1 1 0 011-1h12a1 1 0 110 2H4a1 1 0 01-1-1z"
        />
    </symbol>
    <symbol id="EmailAddress" viewBox="0 0 122.88 78.607">
        <path
            fill="currentColor"
            d="M61.058,65.992l24.224-24.221l36.837,36.836H73.673h-25.23H0l36.836-36.836 L61.058,65.992L61.058,65.992z M1.401,0l59.656,59.654L120.714,0H1.401L1.401,0z M0,69.673l31.625-31.628L0,6.42V69.673L0,69.673z M122.88,72.698L88.227,38.045L122.88,3.393V72.698L122.88,72.698z"
        />
    </symbol>

    <symbol id="Phone" viewBox="0 0 118.875 122.877">
        <path
            fill="currentColor"
            d="M1.432,20.714c9.427,6.476,18.779,12.989,26.673,21.375 C23.58,62.076,41.64,78.045,58.111,87.453c6.448,3.683,9.298,6.265,16.476,5.024l28.268,27.696 C49.657,138.039-10.045,63.084,1.432,20.714L1.432,20.714z M81.874,85.356l6.201-6.298c1.788-1.819,4.74-1.842,6.559-0.053 l22.862,22.509c1.818,1.789,1.841,4.741,0.053,6.559l-6.203,6.299c-1.789,1.818-4.741,1.841-6.56,0.052L81.924,91.915 C80.105,90.127,80.083,87.175,81.874,85.356L81.874,85.356z M7.004,7.467l4.5-5.464c1.929-2.342,5.425-2.68,7.767-0.751 l23.405,19.281c2.342,1.931,2.677,5.425,0.75,7.77l-4.502,5.461c-1.93,2.345-5.425,2.68-7.768,0.751L7.755,15.234 C5.413,13.305,5.073,9.809,7.004,7.467L7.004,7.467z"
        />
    </symbol>

    <symbol id="MapPin" viewBox="0 0 512 512">
        <path 
            fill="currentColor" 
            id="Combined-Shape"
            d="M149.333333,7.10542736e-15 C231.807856,7.10542736e-15 298.666667,66.8588107 298.666667,149.333333 C298.666667,176.537017 291.413333,202.026667 278.683512,224.008666 C270.196964,238.663333 227.080238,313.32711 149.333333,448 C71.5864284,313.32711 28.4697022,238.663333 19.9831547,224.008666 C7.25333333,202.026667 2.84217094e-14,176.537017 2.84217094e-14,149.333333 C2.84217094e-14,66.8588107 66.8588107,7.10542736e-15 149.333333,7.10542736e-15 Z M149.333333,85.3333333 C113.987109,85.3333333 85.3333333,113.987109 85.3333333,149.333333 C85.3333333,184.679557 113.987109,213.333333 149.333333,213.333333 C184.679557,213.333333 213.333333,184.679557 213.333333,149.333333 C213.333333,113.987109 184.679557,85.3333333 149.333333,85.3333333 Z" 
        />
    </symbol>

    <symbol id="LinkedIn" viewBox="0 0 24 24">
        <path 
            fill="currentColor" 
            d="M19 0h-14c-2.761 0-5 2.239-5 5v14c0 2.761 2.239 5 5 5h14c2.762 0 5-2.239 5-5v-14c0-2.761-2.238-5-5-5zm-11 19h-3v-11h3v11zm-1.5-12.268c-.966 0-1.75-.79-1.75-1.764s.784-1.764 1.75-1.764 1.75.79 1.75 1.764-.783 1.764-1.75 1.764zm13.5 12.268h-3v-5.604c0-3.368-4-3.113-4 0v5.604h-3v-11h3v1.765c1.396-2.586 7-2.777 7 2.476v6.759z"
        />
    </symbol>

    <symbol id="Github" viewBox="0 0 640 640">
        <path
            fill="currentColor"
            d="M319.988 7.973C143.293 7.973 0 151.242 0 327.96c0 141.392 91.678 261.298 218.826 303.63 16.004 2.964 21.886-6.957 21.886-15.414 0-7.63-.319-32.835-.449-59.552-89.032 19.359-107.8-37.772-107.8-37.772-14.552-36.993-35.529-46.831-35.529-46.831-29.032-19.879 2.209-19.442 2.209-19.442 32.126 2.245 49.04 32.954 49.04 32.954 28.56 48.922 74.883 34.76 93.131 26.598 2.882-20.681 11.15-34.807 20.315-42.803-71.08-8.067-145.797-35.516-145.797-158.14 0-34.926 12.52-63.485 32.965-85.88-3.33-8.078-14.291-40.606 3.083-84.674 0 0 26.87-8.61 88.029 32.8 25.512-7.075 52.878-10.642 80.056-10.76 27.2.118 54.614 3.673 80.162 10.76 61.076-41.386 87.922-32.8 87.922-32.8 17.398 44.08 6.485 76.631 3.154 84.675 20.516 22.394 32.93 50.953 32.93 85.879 0 122.907-74.883 149.93-146.117 157.856 11.481 9.921 21.733 29.398 21.733 59.233 0 42.792-.366 77.28-.366 87.804 0 8.516 5.764 18.473 21.992 15.354 127.076-42.354 218.637-162.274 218.637-303.582 0-176.695-143.269-319.988-320-319.988l-.023.107z"
        />
    </symbol>

    <symbol id="Spanish" viewBox="0 0 473.673 473.673">
        <path 
            fill="#FFD034" 
            d="M0.001 236.838c0 55.035 18.821 105.635 50.308 145.843h265.745c25.175-83.901 25.175-207.786 0-291.69H50.309C18.822 131.203.001 181.807.001 236.838z 
            M423.376 90.991H298.632c25.175 83.909 25.175 207.793 0 291.69h124.733c31.487-40.208 50.308-90.808 50.308-145.843 0-55.031-18.822-105.635-50.297-145.847z"
        />
        <path 
            fill="#D32030" 
            d="
            M50.309 90.991h265.745C299.947 37.313 273.542 0 236.836 0c-4.712 0-9.394.138-14.046.415C152.695 4.555 90.932 39.105 50.309 90.991z
            M298.632 90.991h124.741C380.02 35.627 312.613 0 236.836 0c36.706 0 45.693 37.313 61.796 90.991z
            M316.053 382.682H50.309c40.623 51.894 102.386 86.44 172.349 90.576 4.652.269 9.334.408 14.046.408 36.838.007 63.243-37.306 79.349-90.984z
            M236.836 473.673c75.779 0 143.185-35.619 186.534-90.991H298.632c-16.103 53.678-25.09 90.991-61.796 90.991z
            "
        />
    </symbol>

    <symbol id="English" viewBox="0 0 64 64">
        <path 
            fill="#2a5f9e" 
            d="
            M22 60.3V46.5l-10.3 7.6c2.9 2.7 6.4 4.8 10.3 6.2
            M42 60.3c3.9-1.4 7.4-3.5 10.3-6.2L42 46.4v13.9
            M3.7 42c.3 1 .7 1.9 1.2 2.9L8.8 42H3.7
            M55.2 42l3.9 2.9c.4-.9.8-1.9 1.2-2.9h-5.1
            M42 3.7v13.8l10.3-7.6C49.4 7.2 45.9 5.1 42 3.7
            M22 3.7c-3.9 1.4-7.4 3.5-10.3 6.2L22 17.6V3.7
            M60.3 22c-.3-1-.7-1.9-1.2-2.9L55.2 22h5.1
            M8.8 22l-3.9-2.9c-.4 1-.8 1.9-1.2 2.9h5.1
            "
        />
        <path 
            fill="#ffffff" 
            d="
            M23.5 38H2.6c.3 1.4.7 2.7 1.1 4h5.1l-3.9 2.9c.8 1.7 1.7 3.2 2.8 4.7L18 42h4v2l-11.7 8.6l1.4 1.4L22 46.5v13.8c1.3.5 2.6.8 4 1.1V38h-2.5
            M61.4 38H38v23.4c1.4-.3 2.7-.7 4-1.1V46.5L52.3 54c1.4-1.3 2.6-2.7 3.8-4.2L45.4 42h6.8l6.1 4.5c.3-.5.6-1.1.8-1.6L55.2 42h5.1c.4-1.3.8-2.6 1.1-4
            M40.5 26h20.8c-.3-1.4-.7-2.7-1.1-4h-5.1l3.9-2.9c-.8-1.7-1.7-3.2-2.8-4.7L46 22h-4v-2l11.7-8.6l-1.4-1.4L42 17.5V3.7c-1.3-.5-2.6-.8-4-1.1V26h2.5
            M2.6 26H26V2.6c-1.4.3-2.7.7-4 1.1v13.8L11.7 10c-1.4 1.3-2.6 2.7-3.8 4.2L18.6 22h-6.8l-6.1-4.5c-.3.5-.6 1.1-.8 1.6L8.8 22H3.7c-.4 1.3-.8 2.6-1.1 4
            "
        />
        <path 
            fill="#ed4c5c" 
            d="
            M7.7 49.6c.8 1.1 1.6 2.1 2.5 3.1L22 44.1v-2h-4L7.7 49.6
            M45.5 42l10.7 7.8c.4-.5.7-1 1.1-1.5c.1-.1.1-.2.2-.2c.3-.5.7-1.1 1-1.6L52.2 42h-6.7
            M56.3 14.4c-.8-1.1-1.6-2.1-2.5-3.1L42 19.9v2h4l10.3-7.5
            M18.5 22L7.9 14.2c-.4.5-.7 1-1.1 1.5c-.1.1-.1.2-.2.2c-.3.5-.7 1.1-1 1.6l6.1 4.5h6.8
            M61.4 26H38V2.6c-1.9-.4-3.9-.6-6-.6s-4.1.2-6 .6V26H2.6c-.4 1.9-.6 3.9-.6 6s.2 4.1.6 6H26v23.4c1.9.4 3.9.6 6 .6s4.1-.2 6-.6V38h23.4c.4-1.9.6-3.9.6-6s-.2-4.1-.6-6
            "
        />
    </symbol>

    <symbol id="Dropdown" viewBox="0 0 24 24" fill="none" stroke="currentColor">
        <path
            stroke-linecap="round" stroke-linejoin="round" stroke-width="2"
            d="M19 9l-7 7-7-7" />
    </symbol>

</svg>